<mxfile host="app.diagrams.net" modified="2023-06-05T06:56:29.085Z" agent="Mozilla/5.0 (Windows NT 10.0; Win64; x64) AppleWebKit/537.36 (KHTML, like Gecko) Chrome/114.0.0.0 Safari/537.36" version="21.1.5" etag="cP4euqgtEN1yT4j4ISPG" type="github">
  <diagram name="Page-1" id="aQZmvvaxGpf4Tu83erWk">
    <mxGraphModel>
      <root>
        <mxCell id="0" />
        <mxCell id="1" parent="0" />
      </root>
    </mxGraphModel>
  </diagram>
</mxfile>
